# xmcd
#
# Track frame offsets: 
#        150
#        27807
#        45462
#        64104
#        73492
#        87322
#        97817
#        111623
#        127904
#        137395
#        159264
#        170883
#
# Disc length: 2448 seconds
#
# Revision: 0
# Processed by: cddbd v1.5.1PL0 Copyright (c) Steve Scherf et al.
# Submitted via: ExactAudioCopy v0.95a3
#
DISCID=a0098e0c
DTITLE=Various Artist - The Blues Come From Mississippi
DYEAR=2003
DGENRE=Blues
TTITLE0=Levee Camp Blues
TTITLE1=Casey Jones
TTITLE2=Death Letter
TTITLE3=Baby Please Don't Go
TTITLE4=Screamin' and Hollerin' Blues
TTITLE5=That's All Right Mama
TTITLE6=Steady Rollin' Man
TTITLE7=Canned Heat Blues
TTITLE8=Pony Blues
TTITLE9=Take Your Hand Out Of My Pocket
TTITLE10=Stop The Train Conductor
TTITLE11=Mississippi Blues
EXTD=
EXTT0=
EXTT1=
EXTT2=
EXTT3=
EXTT4=
EXTT5=
EXTT6=
EXTT7=
EXTT8=
EXTT9=
EXTT10=
EXTT11=
PLAYORDER=
